<svg width="24" height="24" viewBox="0 0 24 24" fill="none" xmlns="http://www.w3.org/2000/svg">
<g clip-path="url(#clip0_49_16801)">
<path fill-rule="evenodd" clip-rule="evenodd" d="M19.4887 2.61757C19.3011 2.85551 18.9367 2.91841 18.7306 3.13811C18.3072 3.56749 18.0088 3.94368 17.9108 4.54627C17.8012 5.22026 17.9919 5.85019 18.1739 6.42877C18.3385 6.95234 18.5467 7.50722 18.7306 8.08184C18.906 8.62943 19.1335 9.26544 19.0862 9.93396C19.034 10.6699 18.4377 11.2655 17.679 11.2959C16.7664 11.3324 16.2076 10.8353 15.7765 10.3162C15.5032 9.98714 15.1802 9.45505 15.0187 8.92358C14.9637 8.74216 14.89 8.49967 14.9106 8.32646C14.9309 8.15234 15.0991 8.00071 15.2045 7.83662C15.5008 7.37503 15.8017 6.80314 15.8539 6.13766C16.024 3.98167 14.4577 3.31071 12.7763 2.93877C11.9442 2.75493 10.9933 2.64188 10.2711 2.29608C9.83414 2.08701 9.42024 1.79164 9.35821 1.19392C9.32536 0.874551 9.43467 0.420867 9.69843 0.260421C9.86915 0.1568 10.2244 0.13796 10.4719 0.107268C11.4796 -0.0170164 12.9304 -0.0534813 13.9517 0.107268C14.7107 0.226995 15.4019 0.451254 16.0553 0.688884C16.7158 0.929248 17.325 1.20182 17.9268 1.50023C18.2175 1.64457 18.4841 1.83479 18.7619 2.00527C19.0288 2.16936 19.3539 2.3216 19.4887 2.61757Z" fill="#11023B"/>
<path fill-rule="evenodd" clip-rule="evenodd" d="M10.2244 7.43884C10.073 7.24193 10.0343 7.00704 9.94591 6.81165C9.67325 6.20906 9.22188 5.75143 8.63142 5.43418C8.24055 5.22421 7.59635 5.04279 7.00774 5.12788C5.813 5.30018 5.18846 6.27136 4.48655 6.9493C4.19577 7.30544 3.86477 7.73178 3.49661 8.12803C3.13552 8.51669 2.76031 8.92023 2.25951 9.06153C1.51184 9.27212 0.713814 8.76495 0.712893 8.05145C0.712279 7.82568 0.836634 7.6005 0.929364 7.37776C1.19312 6.7451 1.51583 6.13522 1.84192 5.61772C2.29113 4.90453 2.78641 4.15791 3.38853 3.61246C4.3103 2.77741 5.26922 1.99038 6.48176 1.36257C6.66046 1.26989 6.88768 1.18298 7.10047 1.08696C7.33505 0.980905 7.57148 0.841731 7.76554 0.811647C7.78734 0.808 7.82081 0.808304 7.84292 0.811647C8.02745 0.839603 7.99399 1.38111 8.02837 1.57711C8.07443 1.83965 8.169 2.17665 8.27586 2.38815C8.71156 3.25419 9.76536 3.55776 10.8585 3.8118C11.3955 3.93669 11.9024 4.07131 12.4668 4.20987C12.9952 4.33963 13.5498 4.50554 13.905 4.7763C14.3708 5.13092 14.6208 5.95898 14.3073 6.64391C13.7764 7.80289 11.6433 8.2037 10.2244 7.43884Z" fill="#11023B"/>
<path fill-rule="evenodd" clip-rule="evenodd" d="M15.4833 16.8678C14.8309 16.3208 14.9414 15.0667 15.2979 14.3271C15.4821 13.9442 15.674 13.6336 15.9473 13.317C16.1681 13.0608 16.5027 12.6348 16.8598 12.5822C17.1199 12.5439 17.3751 12.6494 17.5866 12.6588C18.3457 12.6925 18.9484 12.3884 19.3807 12.0772C19.9706 11.653 20.4809 11.0768 20.5101 10.0415C20.5374 9.06518 20.2015 8.24837 19.9221 7.47014C19.7913 7.10489 19.6417 6.71259 19.5048 6.30691C19.3159 5.74657 19.1474 5.01089 19.4274 4.48549C19.5966 4.16825 20.0378 3.87956 20.371 3.84249C20.4698 3.83186 20.7136 3.84006 20.8193 3.87349C21.0502 3.94581 21.3019 4.31988 21.4843 4.54687C21.9087 5.07501 22.2133 5.5609 22.5516 6.15406C22.7141 6.43971 22.8863 6.73993 23.0156 7.02649C23.5812 8.27906 23.903 9.65591 23.9902 11.3886C24.023 12.0474 23.9754 12.7582 23.8818 13.3936C23.856 13.5677 23.8376 13.8789 23.727 13.9296C23.6005 13.9873 23.3752 13.7734 23.2784 13.7154C22.8461 13.4546 22.1731 13.3331 21.5771 13.4553C20.8414 13.6057 20.406 14.0633 19.907 14.5571C19.4765 14.9831 18.9988 15.4778 18.5615 15.9808C18.1694 16.4317 17.6591 16.9936 17.0766 17.2513C16.5279 17.4928 15.7925 17.3388 15.4833 16.8678Z" fill="#11023B"/>
<path fill-rule="evenodd" clip-rule="evenodd" d="M0.264237 9.97984C0.59493 10.0616 0.73341 10.2281 0.975673 10.332C1.20596 10.4305 1.46634 10.5241 1.81085 10.5463C2.51277 10.5918 3.05318 10.2889 3.49656 9.93396C3.92582 9.59058 4.25897 9.21074 4.62558 8.78592C4.96518 8.3921 5.35145 7.98703 5.70824 7.592C6.05245 7.21063 6.51886 6.7609 6.99202 6.59742C8.01542 6.2434 8.8245 7.12555 8.90986 7.99007C8.9854 8.75766 8.74835 9.39397 8.46126 9.88807C8.36086 10.0607 8.293 10.2497 8.19812 10.3931C8.00928 10.6788 7.47041 11.2601 7.06909 11.3266C6.82929 11.3667 6.60483 11.264 6.40402 11.25C5.67355 11.2005 5.04072 11.4503 4.59457 11.7554C3.9949 12.1653 3.54937 12.6998 3.40383 13.6227C3.25645 14.5574 3.56779 15.4383 3.80607 16.1789C3.92459 16.5475 4.05631 16.9346 4.17698 17.3421C4.33082 17.8608 4.51412 18.615 4.27002 19.148C4.07996 19.5631 3.70658 19.8828 3.03291 19.8828C2.73722 19.7613 2.42649 19.2586 2.22844 18.9949C1.73378 18.3358 1.37422 17.6736 1.02204 16.8982C0.932993 16.7015 0.819691 16.5375 0.75951 16.332C0.699635 16.1275 0.627478 15.9291 0.558391 15.7197C0.291257 14.9099 0.106413 13.9378 0.0324136 12.9493C-0.0243907 12.192 -0.00504654 11.3634 0.0787783 10.6073C0.103342 10.3861 0.11716 10.1345 0.264237 9.97984Z" fill="#11023B"/>
<path fill-rule="evenodd" clip-rule="evenodd" d="M10.1166 15.1378C9.98303 15.029 9.98365 14.8491 9.93114 14.7093C9.6594 13.9922 9.33853 13.3021 8.87919 12.7348C8.70018 12.5135 8.47357 12.3279 8.35352 12.0614C8.38545 11.8851 8.5227 11.7842 8.61604 11.6788C9.19514 11.0267 9.74845 10.2123 10.0236 9.21468C10.0684 9.05272 10.1089 8.82907 10.2247 8.78592C10.3193 8.75067 10.5124 8.81509 10.6886 8.8473C11.5745 9.00957 12.6952 8.98344 13.488 8.77072C13.8408 8.67592 13.9185 9.26087 14.0447 9.55107C14.3821 10.3272 14.7233 10.9729 15.2818 11.5256C15.3619 11.6053 15.5499 11.701 15.56 11.8775C15.5698 12.0471 15.4098 12.1519 15.3125 12.2604C15.0073 12.6011 14.7804 12.9174 14.5394 13.3316C14.3324 13.6877 14.1365 14.1529 13.9824 14.6325C13.94 14.765 13.8869 15.002 13.7816 15.0457C13.6431 15.1032 13.1604 14.9631 12.9774 14.9388C12.2905 14.8476 11.6823 14.881 11.0596 14.9692C10.7249 15.0172 10.458 15.1569 10.1166 15.1378Z" fill="#11023B"/>
<path fill-rule="evenodd" clip-rule="evenodd" d="M8.84815 15.8881C8.69923 16.2627 8.49228 16.3752 8.35349 16.6839C8.26261 16.8857 8.20642 17.1279 8.15238 17.3421C7.97122 18.059 8.07132 18.8706 8.39986 19.4695C8.87026 20.3268 9.89642 20.6546 10.9054 20.8932C11.4323 21.0175 12.0172 21.0785 12.5911 21.184C13.1119 21.2797 13.6894 21.3569 14.1224 21.6125C14.45 21.8063 14.7521 22.2087 14.8028 22.6535C14.8571 23.1324 14.61 23.5767 14.2768 23.7247C14.1101 23.7988 13.8386 23.8323 13.5807 23.8623C12.8791 23.9444 12.0194 24.0003 11.2607 24C10.7568 24 10.263 23.8973 9.80707 23.8165C8.43517 23.574 7.28649 23.1203 6.20353 22.5156C5.70979 22.2403 5.22096 21.9139 4.73429 21.5359C4.59427 21.4274 4.32929 21.2515 4.33205 21.1229C4.33451 21.0232 4.53133 20.9205 4.64156 20.8473C5.29036 20.4155 5.84458 19.688 5.77058 18.5667C5.71716 17.7602 5.42331 17.058 5.22925 16.332C5.13223 15.9689 5.02998 15.5979 4.95076 15.2144C4.84974 14.7233 4.68209 14.1162 4.84237 13.6227C5.02783 13.0538 5.56578 12.6205 6.31161 12.5971C6.70248 12.585 7.12928 12.7667 7.39427 12.9338C7.61227 13.0718 7.82997 13.2626 7.99732 13.4543C8.16712 13.6488 8.27704 13.8904 8.41491 14.1432C8.67651 14.6215 8.92062 15.1907 8.84815 15.8881Z" fill="#11023B"/>
<path fill-rule="evenodd" clip-rule="evenodd" d="M16.2556 23.082C16.1165 22.8529 16.1933 22.6152 16.1785 22.4083C16.095 21.2539 15.2531 20.5346 14.276 20.235C13.7685 20.0791 13.1845 20.0156 12.5593 19.8831C11.3723 19.6309 10.1155 19.5333 9.60519 18.7044C9.24011 18.1109 9.46026 17.3458 9.80631 16.9136C10.2703 16.3345 11.1724 15.999 12.2962 16.0257C12.6066 16.033 12.8995 16.0968 13.1467 16.1634C13.4261 16.2387 13.7412 16.315 13.8581 16.5463C13.9539 16.7353 13.9911 16.9653 14.09 17.1738C14.3574 17.7387 14.6817 18.0997 15.2347 18.4291C15.5644 18.6254 15.9934 18.7667 16.41 18.7965C17.0515 18.8417 17.5876 18.609 18.034 18.2914C18.8557 17.7071 19.4744 16.9541 20.1527 16.1792C20.3249 15.9826 20.4769 15.7914 20.663 15.6283C21.0708 15.2706 21.5449 14.6358 22.3954 14.8935C22.8081 15.0184 23.241 15.4265 23.2306 15.9346C23.2269 16.1081 23.0918 16.3898 22.9987 16.5928C22.8986 16.8103 22.8004 17.0148 22.7202 17.1896C22.5286 17.6083 22.2781 17.9678 22.0865 18.3224C21.8811 18.7019 21.6545 19.059 21.3904 19.3936C21.1239 19.7318 20.8641 20.067 20.5706 20.3426C19.4689 21.377 18.3472 22.2144 16.905 22.8833C16.7079 22.9744 16.4883 23.1042 16.2556 23.082Z" fill="#11023B"/>
</g>
<defs>
<clipPath id="clip0_49_16801">
<rect width="24" height="24" fill="white"/>
</clipPath>
</defs>
</svg>
